# AST/ASF file generated using VICON BodyLanguage
# -----------------------------------------------
:version 1.10
:name VICON
:units
  mass 1.0
  length 0.45
  angle deg
:documentation
   .ast/.asf automatically generated from VICON data using
   VICON BodyBuilder and BodyLanguage model FoxedUp or BRILLIANT.MOD
:root
   order TX TY TZ RX RY RZ
   axis XYZ
   position 0 0 0  
   orientation 0 0 0 
:bonedata
  begin
     id 1 
     name lhipjoint
     direction 0.575328 -0.747301 0.332475 
     length 2.40933 
     axis 0 0 0  XYZ
  end
  begin
     id 2 
     name lfemur
     direction 0.34202 -0.939693 0  
     length 7.31453  
     axis 0 0 20  XYZ
    dof rx ry rz
    limits (-160.0 20.0)
           (-70.0 70.0)
           (-60.0 70.0)
  end
  begin
     id 3 
     name ltibia
     direction 0.34202 -0.939693 0   
     length 7.82185   
     axis 0 0 20   XYZ
    dof rx
    limits (-10.0 170.0)
  end
  begin
     id 4 
     name lfoot
     direction 0.0795993 -0.218697 0.972541   
     length 2.19173   
     axis -90 7.62852e-016 20   XYZ
    dof rx rz
    limits (-45.0 90.0)
           (-70.0 20.0)
  end
  begin
     id 5 
     name ltoes
     direction 1.53537e-011 -4.21894e-011 1   
     length 1.10023   
     axis -90 7.62852e-016 20   XYZ
    dof rx
    limits (-90.0 20.0)
  end
  begin
     id 6 
     name rhipjoint
     direction -0.513884 -0.783789 0.348708   
     length 2.29716  
     axis 0 0 0  XYZ 
  end
  begin
     id 7 
     name rfemur
     direction -0.34202 -0.939693 0   
     length 7.59573   
     axis 0 0 -20   XYZ
    dof rx ry rz
    limits (-160.0 20.0)
           (-70.0 70.0)
           (-70.0 60.0)
  end
  begin
     id 8 
     name rtibia
     direction -0.34202 -0.939693 0   
     length 7.66402   
     axis 0 0 -20   XYZ
    dof rx
    limits (-10.0 170.0)
 end
 begin
     id 9 
     name rfoot
     direction -0.137793 -0.378584 0.915253   
     length 2.27056  
     axis -90 -7.62852e-016 -20   XYZ
    dof rx rz
    limits (-45.0 90.0)
           (-20.0 70.0)
  end
  begin
     id 10 
     name rtoes
     direction -1.53493e-011 -4.22159e-011 1   
     length 1.11766   
     axis -90 -7.62852e-016 -20   XYZ
    dof rx
    limits (-90.0 20.0)
  end
  begin
     id 11 
     name lowerback
     direction -0.00732775 0.998356 -0.05685   
     length 2.16513   
     axis 0 0 0   XYZ
    dof rx ry rz
    limits (-20.0 45.0)
           (-30.0 30.0)
           (-30.0 30.0)
  end
  begin
     id 12 
     name upperback
     direction 0.0218081 0.999627 -0.0164647   
     length 2.16755   
     axis 0 0 0   XYZ
    dof rx ry rz
    limits (-20.0 45.0)
           (-30.0 30.0)
           (-30.0 30.0)
  end
  begin
     id 13 
     name thorax
     direction 0.02365 0.999661 0.0108914   
     length 2.16932   
     axis 0 0 0   XYZ
    dof rx ry rz
    limits (-20.0 45.0)
           (-30.0 30.0)
           (-30.0 30.0)
  end
  begin
     id 14 
     name lowerneck
     direction -0.0523929 0.978385 0.200044   
     length 1.63877   
     axis 0 0 0   XYZ
    dof rx ry rz
    limits (-20.0 45.0)
           (-30.0 30.0)
           (-30.0 30.0)
  end
  begin
     id 15 
     name upperneck
     direction 0.0448674 0.981321 -0.187074   
     length 1.69014   
     axis 0 0 0   XYZ
    dof rx ry rz
    limits (-20.0 45.0)
           (-30.0 30.0)
           (-30.0 30.0)
  end
  begin
     id 16
     name head
     direction 0.0199089 0.996118 -0.0857429  
     length 1.70094  
     axis 0 0 0   XYZ
    dof rx ry rz
    limits (-20.0 45.0)
           (-30.0 30.0)
           (-30.0 30.0)
  end
  begin
     id 17 
     name lclavicle
     direction 0.940366 0.30191 -0.156722  
     length 3.37521  
     axis 0 0 0   XYZ
    dof ry rz
    limits (-20.0 10.0)
           (0.0 20.0)
  end
  begin
     id 18 
     name lhumerus
     direction 1 -4.4897e-011 -1.7911e-027   
     length 5.25287   
     axis 180 -30 -90   XYZ
    dof rx ry rz
    limits (-60.0 90.0)
           (-90.0 90.0)
           (-90.0 90.0)
  end
  begin
     id 19
     name lradius
     direction 1 -4.48951e-011 1.04424e-027   
     length 3.51014   
     axis 180 -30 -90   XYZ
    dof rx
    limits (-10.0 170.0)
  end
  begin
     id 20
     name lwrist
     direction 1 -4.48997e-011 -9.5942e-028   
     length 1.75507   
     axis 8.48502e-016 90 90   XYZ
    dof ry
    limits (-180.0 0.0)
 end
  begin
     id 21 
     name lhand
     direction 1 -4.48831e-011 -1.90777e-027   
     length 0.706179   
     axis 1.22306e-015 90 90   XYZ
    dof rx rz
    limits (-90.0 90.0)
           (-45.0 45.0)
  end
  begin
     id 22 
     name lfingers
     direction 1 -4.49108e-011 -3.85244e-027   
     length 0.569339   
     axis 2.44611e-015 90 90   XYZ
    dof rx
    limits (0.0 90.0)
  end
  begin
     id 23
     name lthumb
     direction 0.707107 -6.34953e-011 0.707107   
     length 0.817461   
     axis -90 45 -1.62303e-014   XYZ
    dof rx rz
    limits (-45.0 45.0)
           (-45.0 45.0)
  end
  begin
     id 24 
     name rclavicle
     direction -0.905329 0.382405 -0.184787   
     length 3.30787  
     axis 0 0 0   XYZ 
    dof ry rz
    limits (-10.0 20.0)
           (-20.0 0.0)
  end
  begin
     id 25 
     name rhumerus
     direction -1 -4.48953e-011 -9.15316e-029  
     length 5.28721   
     axis 180 30 90   XYZ
    dof rx ry rz
    limits (-90.0 60.0)
           (-90.0 90.0)
           (-90.0 90.0)
  end
  begin
     id 26 
     name rradius
     direction -1 -4.48987e-011 9.37824e-028   
     length 3.50544   
     axis 180 30 90   XYZ
    dof rx
    limits (-10.0 170.0)
  end
  begin
     id 27 
     name rwrist
     direction -1 -4.48967e-011 -9.58414e-028   
     length 1.75272   
     axis 8.48502e-016 -90 -90   XYZ
    dof ry
    limits (-180.0 0.0)
  end
  begin
     id 28
     name rhand
     direction -1 -4.48904e-011 -1.91266e-027   
     length 0.884996   
     axis 1.22306e-015 -90 -90   XYZ
    dof rx rz
    limits (-90.0 90.0)
           (-45.0 45.0)
  end
  begin
     id 29
     name rfingers
     direction -1 -4.4909e-011 -3.85015e-027   
     length 0.713507   
     axis 2.44611e-015 -90 -90   XYZ
    dof rx
    limits (0.0 90.0)
  end
  begin
     id 30
     name rthumb
     direction -0.707107 -6.34853e-011 0.707107   
     length 1.02446   
     axis -90 -45 1.62303e-014   XYZ
    dof rx rz
    limits (-45.0 45.0)
           (-45.0 45.0)
  end
:hierarchy
  begin
    root lhipjoint rhipjoint lowerback
    lhipjoint lfemur
    lfemur ltibia
    ltibia lfoot
    lfoot ltoes
    rhipjoint rfemur
    rfemur rtibia
    rtibia rfoot
    rfoot rtoes
    lowerback upperback
    upperback thorax
    thorax lowerneck lclavicle rclavicle
    lowerneck upperneck
    upperneck head
    lclavicle lhumerus
    lhumerus lradius
    lradius lwrist
    lwrist lhand lthumb
    lhand lfingers
    rclavicle rhumerus
    rhumerus rradius
    rradius rwrist
    rwrist rhand rthumb
    rhand rfingers
  end

#!OML:ASF F:\twosubjects\two\Thursday\Session 1\justin.ASF
:FULLY-SPECIFIED
:DEGREES
1
root 7.94811 17.3337 -19.3888 2.38941 -75.2257 3.16037
lowerback -4.28597 0.698976 -2.44074
upperback -0.672709 0.986687 2.23939
thorax 1.63003 0.468382 3.7334
lowerneck -17.6789 5.99413 -1.30418
upperneck 23.1785 8.86057 -0.770815
head 10.3072 3.7931 1.16151
rclavicle 4.88513e-014 1.51076e-014
rhumerus -30.4156 -15.7631 -78.934
rradius 27.304
rwrist -2.89857
rhand -14.0601 11.2834
rfingers 7.12502
rthumb 12.0711 -18.3484
lclavicle 4.88513e-014 1.51076e-014
lhumerus -29.5548 3.26636 89.3893
lradius 26.0822
lwrist -13.4707
lhand -0.483082 40.9264
lfingers 7.12502
lthumb 25.1276 69.2928
rfemur -12.6448 1.32744 18.9825
rtibia 36.6431
rfoot -26.5108 -11.1235
rtoes -8.71121
lfemur -10.43 2.72387 -17.3194
ltibia 28.0784
lfoot -18.9007 3.09449
ltoes -15.9133
2
root 7.95267 17.3289 -19.3915 3.73024 -75.1532 1.81846
lowerback -4.22454 0.648196 -2.14732
upperback -0.732814 0.898803 2.42628
thorax 1.54263 0.426694 3.7547
lowerneck -17.6715 6.01735 -1.53629
upperneck 23.2274 8.94942 -0.726247
head 10.3093 3.81684 1.22673
rclavicle 3.99309e-014 1.11319e-014
rhumerus -30.4255 -15.4979 -78.8595
rradius 27.3117
rwrist -2.97604
rhand -14.0925 11.2307
rfingers 7.12502
rthumb 12.04 -18.4029
lclavicle 3.99309e-014 1.11319e-014
lhumerus -29.647 3.56542 89.4151
lradius 26.1147
lwrist -13.6556
lhand -0.138462 40.3723
lfingers 7.12502
lthumb 25.4577 68.6921
rfemur -12.6945 1.2364 19.377
rtibia 36.6
rfoot -26.4475 -11.0715
rtoes -8.2834
lfemur -10.5785 2.85615 -16.9251
ltibia 28.1869
lfoot -18.8403 3.21127
ltoes -17.6654
3
root 7.94771 17.3279 -19.388 3.36922 -75.148 2.24919
lowerback -4.37222 0.837768 -2.13843
upperback -0.747096 1.15892 2.19939
thorax 1.59447 0.557284 3.53093
lowerneck -18.5809 5.98462 -1.62975
upperneck 24.3681 8.74721 0.200042
head 10.8439 3.78381 1.60175
rclavicle -3.54582e-014 -7.95139e-015
rhumerus -30.6034 -16.3246 -78.7727
rradius 27.2745
rwrist -2.78751
rhand -14.0797 11.2774
rfingers 7.12502
rthumb 12.0523 -18.3555
lclavicle -3.54582e-014 -7.95139e-015
lhumerus -29.5581 3.01453 89.3356
lradius 25.9674
lwrist -13.7892
lhand 0.191466 40.0456
lfingers 7.12502
lthumb 25.7738 68.3199
rfemur -12.7369 1.08587 19.2206
rtibia 36.6126
rfoot -26.4801 -10.8996
rtoes -7.98638
lfemur -10.55 2.70005 -17.048
ltibia 28.1091
lfoot -18.8488 3.1182
ltoes -16.4983
4
root 7.94367 17.3321 -19.3857 2.65144 -75.1037 2.96735
lowerback -4.40151 0.866539 -2.29772
upperback -0.718799 1.20889 2.07923
thorax 1.6354 0.581288 3.5002
lowerneck -19.0775 6.00767 -1.64763
upperneck 24.9101 8.70114 0.6098
head 11.1175 3.79121 1.77836
rclavicle 3.70236e-014 -7.95139e-016
rhumerus -30.6029 -16.5777 -78.8012
rradius 27.2544
rwrist -2.56146
rhand -14.0488 11.2682
rfingers 7.12502
rthumb 12.082 -18.363
lclavicle 3.70236e-014 -7.95139e-016
lhumerus -29.4828 2.93358 89.2673
lradius 25.8986
lwrist -13.8935
lhand 0.15034 40.022
lfingers 7.12502
lthumb 25.7344 68.302
rfemur -12.6746 1.09413 19.0021
rtibia 36.6245
rfoot -26.6142 -10.8515
rtoes -7.7157
lfemur -10.4599 2.68141 -17.2432
ltibia 28.0624
lfoot -18.9476 2.89231
ltoes -15.2299
5
root 7.94346 17.3356 -19.3873 2.39598 -75.0858 3.2159
lowerback -4.40959 0.824864 -2.39295
upperback -0.668137 1.1579 2.09736
thorax 1.69372 0.553744 3.5709
lowerneck -19.1039 5.98903 -1.8514
upperneck 24.9362 8.7199 0.68139
head 11.1179 3.78844 1.84072
rclavicle -9.98893e-015 5.56597e-015
rhumerus -30.4766 -16.4609 -78.8723
rradius 27.2159
rwrist -2.12229
rhand -14.3046 11.1706
rfingers 7.12502
rthumb 11.8354 -18.4749
lclavicle -9.98893e-015 5.56597e-015
lhumerus -29.4087 3.2039 89.2074
lradius 25.9185
lwrist -14.2296
lhand 0.371773 40.0877
lfingers 7.12502
lthumb 25.9464 68.3368
rfemur -12.6506 1.26986 18.9416
rtibia 36.6461
rfoot -26.7296 -10.9492
rtoes -7.61101
lfemur -10.4256 2.87524 -17.3067
ltibia 28.0066
lfoot -18.9666 2.81429
ltoes -15.3569
